<?xml version="1.0" encoding="utf-8"?>
<svg version="1.1" xmlns="http://www.w3.org/2000/svg" xmlns:xlink="http://www.w3.org/1999/xlink" x="0px" y="0px"
	 viewBox="219 49 239 197" style="enable-background:new 0 0 500 500;" xml:space="preserve">
<g id="OBJECTS">
	<path style="fill:none;stroke:currentColor;stroke-linecap:round;stroke-linejoin:round;stroke-miterlimit:10;" d="M304.013,93.601
		c-3.797,7.176-1.829,16.224,2.428,23.136c4.258,6.912,10.504,12.322,16.001,18.296c5.497,5.974,10.478,13.04,11.196,21.127
		c0.293,3.298-0.728,7.376-3.925,8.238c-1.655,0.446-3.41-0.147-4.937-0.925c-5.8-2.955-9.818-8.448-13.46-13.843
		c-17.507-25.94-32.241-55.031-57.517-73.483c-4.252-3.104-8.887-5.915-14.058-6.901c-2.075-0.396-4.334-0.461-6.182,0.562
		c-2.59,1.433-3.707,4.704-3.447,7.653c0.26,2.949,1.633,5.668,2.98,8.304c7.023,13.739,14.046,27.478,21.07,41.217
		c4.018,7.86,8.045,15.736,12.844,23.145c1.956,3.02,4.098,6.021,7.041,8.092c4.488,3.159,10.224,3.766,15.671,4.432
		c9.681,1.183,19.303,2.859,28.814,5.02c1.421,0.323,3.097,0.902,3.414,2.324c0.535,2.402-3.042,3.302-5.486,3.013
		c-8.462-0.998-16.872-2.439-25.183-4.315c-5.081-1.147-11.588-1.923-14.396,2.464c-1.467,2.292-1.283,5.239-0.91,7.935
		c3.008,21.736,15.119,40.204,33.07,52.81c2.284,1.604,4.717,3.227,7.421,4.012c1.924,0.559,4.043,0.637,5.895-0.128
		c1.7-0.703,3.062-2.066,4.07-3.605c6.163-9.411,9.032-20.506,9.308-31.581c0.292-11.681-2.176-23.458-7.416-33.92
		c-1.359-2.712-2.931-5.78-1.878-8.625c1.419-3.835,7.05-4.511,10.398-2.164c3.348,2.347,4.841,6.523,5.783,10.502
		c2.377,10.043,2.478,20.618,0.295,30.705c-0.758,3.502-1.742,7.01-1.611,10.59c0.299,8.199,8.597,6.651,7.265-0.186
		c-1.275-6.54-6.553-12.02-8.947-18.239c-1.321-3.431-2.665-7.034-2.221-10.683c0.905-7.436,8.555-11.914,15.508-14.702
		c18.263-7.324,37.937-11.107,57.614-11.078c5.64,0.008,11.621,0.438,16.233,3.684c4.992,3.513,7.45,9.838,7.56,15.941
		c0.111,6.103-1.83,12.056-4.148,17.702c-5.334,12.994-13.078,25.408-24.457,33.641c-5.077,3.674-11.303,6.528-17.467,5.397
		c-3.7-0.679-6.99-2.724-10.107-4.831c-9.127-6.171-17.65-13.233-25.41-21.053c-5.498-5.541-10.81-11.847-12.317-19.506
		c-0.648-3.291-0.457-6.992,1.656-9.597c2.456-3.028,6.705-3.741,10.559-4.329c23.057-3.516,45.665-9.959,67.111-19.125
		c4.436-1.896,8.973-4.019,12.1-7.693c5.853-6.877,5.18-16.92,5.453-25.946c0.316-10.452,2.344-20.85,5.98-30.654
		c2.187-5.896,4.978-12.35,2.703-18.213c-2.086-5.376-8.109-8.469-13.875-8.55c-5.766-0.081-11.283,2.319-16.268,5.218
		c-14.119,8.212-25.345,20.558-35.51,33.344c-16.284,20.482-36.394,68.556-46.262,64.816c-3.279-1.243-3.506-4.84-3.372-8.344
		c0.39-10.156,5.572-19.529,8.056-29.385c0.704-2.793,1.222-5.77,0.372-8.522c-0.613-1.985-1.941-3.742-3.685-4.873"/>
</g>
</svg>
